<svg aria-hidden="true" style="position: absolute; width: 0; height: 0; overflow: hidden;" version="1.1" xmlns="http://www.w3.org/2000/svg" xmlns:xlink="http://www.w3.org/1999/xlink">
<defs>
<symbol id="icon-star" viewBox="0 0 32 32">
<path d="M25.201 30.934c-0.225 0.001-0.444-0.069-0.626-0.2l-8.575-6.216-8.575 6.216c-0.183 0.133-0.404 0.204-0.63 0.203s-0.447-0.074-0.629-0.208c-0.182-0.134-0.317-0.323-0.385-0.539s-0.065-0.448 0.007-0.662l3.344-9.905-8.667-5.944c-0.188-0.129-0.329-0.314-0.404-0.529s-0.079-0.448-0.012-0.666c0.067-0.217 0.202-0.408 0.385-0.543s0.404-0.209 0.632-0.209h10.693l3.227-9.931c0.069-0.214 0.205-0.401 0.387-0.534s0.402-0.204 0.627-0.204c0.225 0 0.445 0.071 0.627 0.204s0.318 0.319 0.387 0.534l3.227 9.934h10.693c0.228-0 0.45 0.073 0.633 0.208s0.319 0.325 0.386 0.543c0.067 0.218 0.064 0.451-0.011 0.666s-0.217 0.401-0.405 0.53l-8.671 5.94 3.342 9.903c0.054 0.16 0.069 0.331 0.044 0.499s-0.089 0.326-0.188 0.464c-0.099 0.138-0.228 0.25-0.379 0.327s-0.317 0.118-0.486 0.118z"></path>
</symbol>
<symbol id="icon-star-half" viewBox="0 0 32 32">
<path fill= "var(--brend-color)" stroke="var(--brend-color)" opacity="0.7" stroke-linejoin="round" d="M16 1.665v21.778l-9.511 6.892 3.722-11.027-9.649-6.616h11.854l3.584-11.027z"></path>
<path stroke-linejoin="round" stroke-linecap="butt" stroke-miterlimit="4" stroke-width="1.7778" d="M30.971 12.792h-11.496l-3.475-10.694-3.475 10.694h-11.496l9.357 6.416-3.609 10.694 9.223-6.684 9.223 6.684-3.609-10.694 9.357-6.416z"></path>

</symbol>
<symbol id="icon-star-outline" viewBox="0 0 32 32">
<path stroke-linejoin="round" stroke-linecap="butt" stroke-miterlimit="4" stroke-width="1.7778" d="M30.923 12.802h-11.459l-3.464-10.659-3.464 10.659h-11.459l9.327 6.396-3.598 10.659 9.194-6.662 9.194 6.662-3.598-10.659 9.327-6.396z"></path>
</symbol>
</defs>
</svg>
